PathFileType	4	(X/Y/Z)	RBDS015\RBDS015runT45.trc
DataRate	CameraRate	NumFrames	NumMarkers	Units	OrigDataRate	OrigDataStartFrame	OrigNumFrames
150.000000	150.000000	6	33	mm	150.000000	2812	4500
Frame#	Time	L.ASIS			L.Heel.Bottom			L.Heel.Lateral			L.Heel.Top			L.Iliac.Crest			L.MT1			L.MT5			L.PSIS			L.Shank.Bottom.Lateral			L.Shank.Bottom.Medial			L.Shank.Top.Lateral			L.Shank.Top.Medial			L.Thigh.Bottom.Lateral			L.Thigh.Bottom.Medial			L.Thigh.Top.Lateral			L.Thigh.Top.Medial			R.ASIS			R.ASY			R.Heel.Bottom			R.Heel.Lateral			R.Heel.Top			R.Iliac.Crest			R.MT1			R.MT5			R.PSIS			R.Shank.Bottom.Lateral			R.Shank.Bottom.Medial			R.Shank.Top.Lateral			R.Shank.Top.Medial			R.Thigh.Bottom.Lateral			R.Thigh.Bottom.Medial			R.Thigh.Top.Lateral			R.Thigh.Top.Medial			
		X1	Y1	Z1	X2	Y2	Z2	X3	Y3	Z3	X4	Y4	Z4	X5	Y5	Z5	X6	Y6	Z6	X7	Y7	Z7	X8	Y8	Z8	X9	Y9	Z9	X10	Y10	Z10	X11	Y11	Z11	X12	Y12	Z12	X13	Y13	Z13	X14	Y14	Z14	X15	Y15	Z15	X16	Y16	Z16	X17	Y17	Z17	X18	Y18	Z18	X19	Y19	Z19	X20	Y20	Z20	X21	Y21	Z21	X22	Y22	Z22	X23	Y23	Z23	X24	Y24	Z24	X25	Y25	Z25	X26	Y26	Z26	X27	Y27	Z27	X28	Y28	Z28	X29	Y29	Z29	X30	Y30	Z30	X31	Y31	Z31	X32	Y32	Z32	X33	Y33	Z33	

2813	18.74666666666667	2201.359177375667	976.5091450164116	972.6865815300606	2014.000658066847	35.63129165759617	1076.664591065278	2036.640901794736	56.43758199549838	1035.257300233073	2028.257989850087	75.35274357144193	1082.75818802408	2118.409821393757	1041.140894879491	939.2595712255383	2228.48301693728	43.29991789943663	1097.32918800683	2186.332392646863	40.68103684590412	988.6384848095357	2037.667372288312	1030.757952068268	1077.166256867345	2139.553449337036	175.7821780716264	1009.572939613252	2096.460779392535	195.6351353375494	1028.788947753681	2168.24189064371	248.9210823167728	989.1405374339937	2125.585333194733	273.1331368241592	1009.900560160645	2237.2145630707	622.3072566536327	943.8809777755915	2183.382561078283	599.1783618447736	978.334953945065	2187.503353373604	720.0239651598027	929.728466884986	2131.574570536559	695.6174589354825	968.4492453438987	2239.421001047645	959.1868363752448	1196.843987933743	1776.896559498641	304.0886333033273	1163.420566713628	1726.968802404576	488.7529652888548	1157.763091900588	1744.60018634937	460.6828111821499	1200.86024470382	1772.003718635285	477.2095770477987	1160.982868126891	2183.734221128428	1053.490809037621	1246.60385869071	1732.223146905621	278.5146040888321	1115.685341930417	1721.388151347136	315.2148721050659	1228.091692588872	2055.577763645769	1030.542902812212	1165.627007045992	1880.303753709441	417.2244262987888	1218.365633741636	1874.223584825267	469.37773462595	1199.791790767497	1958.519548732999	433.880083113652	1235.120621152703	1951.325482653587	483.9452942659238	1216.232720694051	2211.311993751803	616.073345047723	1276.23767091118	2149.318818480964	597.7580020491886	1242.138516798461	2176.96551971148	719.706376185965	1279.854443793172	2116.818166885895	702.5081415135814	1249.685186780051	
2814	18.75333333333333	2199.979502463807	974.7806543193416	971.7037165550995	1983.611863466364	35.82198702459112	1076.660501698039	2006.141522387383	56.72694845923786	1035.124875659972	1997.577369762898	75.66725297763611	1082.571920661314	2117.607137876871	1041.220078950948	938.8113793811758	2197.71452605877	43.76384747504838	1097.211562685035	2155.699883180522	40.90251081123475	988.5948890365885	2036.520789921618	1031.415118505079	1075.830960478802	2111.802680465493	174.5002045193576	1009.645718326193	2069.393201742529	195.740075611029	1028.780883423372	2142.850415119417	246.6394707597913	989.3777031310152	2100.963562582073	272.2023629603108	1009.96887343537	2224.744349859843	617.9906189034324	944.0408136254754	2169.857512495555	596.8887585857636	978.1855226906586	2178.738873329978	717.4937825648744	929.7354932863798	2121.822168906857	695.2893515070573	968.3595855340359	2237.553611388656	958.3319116922203	1196.611858802587	1800.898367718305	293.0867685446776	1162.931169991752	1742.059898839842	475.0065081185275	1157.625763499621	1761.308978810592	447.6614524705288	1200.272247494661	1787.596466148525	465.7097328467333	1160.432863133002	2180.448265427011	1053.788841920137	1246.459687479575	1757.644858293543	265.5473707501307	1114.984260688231	1745.442662870354	301.401954826138	1227.500241024103	2053.527260530073	1031.406452560982	1164.305962889866	1899.312752396952	410.0129131840576	1217.796897570988	1891.561411361116	461.8678197446489	1199.092038844079	1976.944716326476	429.2286503479544	1234.38607866341	1968.145594600743	478.9438184589679	1215.343295766268	2222.441236634129	619.4211733408118	1276.857883141782	2161.072394757242	598.0313349855375	1243.415453672117	2183.868304730175	721.4084104010617	1279.887917188342	2124.064102548663	701.2690278140328	1250.868444458003	
2815	18.76	2199.146362254763	973.5341325048225	970.7814883831229	1953.065431007715	36.36774310712972	1076.629460143464	1975.538497134279	57.23492085834441	1034.924698318148	1966.805024708482	76.34811972292673	1082.265791325302	2117.46602705479	1042.436476334113	938.4600973059372	2166.905227781619	43.97286048020874	1097.11096712919	2125.026602482928	40.8990057245162	988.5353116493511	2035.738186104931	1032.615385567894	1074.011963830038	2083.692771878796	173.5779154576858	1009.619466152887	2041.947375693803	196.0461890676792	1028.682578399533	2116.858522779704	244.7366023040298	989.5224254896259	2075.685310903782	271.4991470546614	1009.947717366493	2211.656134122845	614.2117818621804	944.1246532696725	2155.654324690317	595.2828077002184	977.8096509184223	2169.684732879133	715.4964557328057	929.6703946327242	2111.717564757234	695.6437587257784	968.050130687385	2235.875495111792	958.8107360455048	1196.362743515186	1825.808596891214	281.3643641114516	1162.367980111298	1757.25979165514	459.6454399947579	1156.808644979486	1778.111708416236	433.3633449275636	1199.118000817596	1803.228366245929	452.9195924431705	1159.276432763381	2177.116354986501	1055.199401761072	1246.137801005687	1784.331546377288	251.5419611459699	1114.285144163453	1770.32405877037	286.7440301307338	1226.737020129353	2051.683218406993	1032.813927472222	1162.560013810621	1918.252980376013	402.5063029164619	1216.955253748713	1908.607181240899	453.8554905601236	1197.85646162436	1995.061944037061	424.7797099236448	1233.377030100686	1984.450379034896	473.923793933543	1213.927549942036	2232.978861587689	623.956596383267	1277.227566299934	2172.377214573242	599.6076742792351	1244.359100269637	2190.293940361763	724.1634410483084	1279.70976760609	2131.025683252606	701.1841531640105	1251.666540144029	
2816	18.76666666666667	2198.878347990244	972.8656637334885	969.9672025399534	1922.403767646321	37.51529436218046	1076.586653017763	1944.899472033442	58.19252917383697	1034.686458954876	1936.040042898789	77.62357768674121	1081.873151088876	2118.022588319027	1044.59659134255	938.2172213138886	2136.071659843497	43.93241851651722	1097.069648706669	2094.333799128363	40.74386555231528	988.4886478778302	2035.337639196422	1034.298091031479	1071.800088897667	2055.394433218565	173.2512627515503	1009.520689305109	2014.278178487283	196.8009327167609	1028.520879671291	2090.459530198177	243.4704614456383	989.58533058777	2049.933442691704	271.2933453755518	1009.852439583808	2198.121538660718	611.1522323695571	944.1202253802053	2141.000247861571	594.5263321098686	977.2308266818078	2160.466554961266	714.1476388176623	929.523861474151	2101.433062122018	696.772847838353	967.5287210483875	2234.410172492178	960.6132322678982	1196.102286259771	1851.621055138648	269.0856000722402	1161.723066470605	1772.736093305444	442.7569927011344	1155.25874177204	1795.116072937492	417.8864201298755	1197.374541946719	1819.021022538087	438.8956062217202	1157.478152130815	2173.792666650608	1057.5496450161	1245.654012993952	1812.273796164186	236.7148550547969	1113.605858538006	1796.01725125304	271.4404057141626	1225.806712746776	2050.082341217096	1034.709644878552	1160.470019838884	1937.091257495522	394.7046865931015	1215.814860084937	1925.368669470875	445.3253357926716	1196.074003375722	2012.791568572138	420.4761228108934	1232.089597746419	2000.205661150963	468.8164182727254	1211.994003969379	2242.85084404295	629.5099862527358	1277.34731936185	2183.120061396818	602.3877349454618	1244.96020863299	2196.2032888348	727.8407287619237	1279.379358962973	2137.641332948388	702.1836994037345	1252.088585793431	
2817	18.77333333333333	2199.179045096786	972.8802720558124	969.296012603132	1891.709698030813	39.51197175189394	1076.527850641507	1914.327553041932	59.82308508356069	1034.419205975526	1905.415355291056	79.71693905867016	1081.402426003613	2119.282960475621	1047.490488761304	938.0675252243759	2105.233140483038	43.68403236885091	1097.113215081933	2063.654268815107	40.51704305409521	988.4711831014323	2035.330513264426	1036.406285524245	1069.303907385942	2027.073764690893	173.7329166632145	1009.357749209943	1986.546061518446	198.2262538777601	1028.318043655359	2063.836369658081	243.0724701614609	989.5685421354121	2023.891006554209	271.8250300840717	1009.701269497946	2184.284227627682	608.963828064796	944.0341269613971	2126.092717202515	594.7634503733022	976.5000595634046	2151.190220567787	713.5422299873483	929.300926102062	2091.121480331996	698.7572868423497	966.828759935705	2233.180991976777	963.6465461532647	1195.837507176592	1878.326295314675	256.4186396116384	1160.992443577437	1788.685315045186	424.4648126793032	1152.959119035928	1812.46195574723	401.3435921538762	1195.042178708423	1835.126725608443	423.7162265721877	1155.033305521793	2170.533052034476	1060.661012418138	1245.028228925451	1841.453429326221	221.3041889964514	1112.95855948445	1822.515034851402	255.6877796808449	1224.717138234632	2048.762761760816	1037.049746301706	1158.132844283262	1955.837580554159	386.595414619844	1214.359375505387	1941.898086983587	436.2571189560763	1193.761679335948	2030.099743108828	416.2327538172724	1230.527813075139	2015.424716178415	463.5337622413894	1209.575618342168	2252.018007761788	635.8929183234123	1277.227033528176	2193.230924890771	606.247074105357	1245.202276389177	2201.592315746916	732.2929475231297	1278.956754689186	2143.881200907218	704.177292259893	1252.147270800138	
2818	18.78	2200.037413278924	973.6704692750577	968.7920089921113	1861.110791843588	42.59032594987411	1076.42764813448	1883.964089037084	62.32742657623562	1034.10904089326	1875.101650053915	82.83068290268537	1080.836070451005	2121.228606447335	1050.915510778363	937.9725591330938	2074.418076167673	43.28677524632077	1097.247465765174	2033.034165747378	40.29115069571018	988.4835374508366	2035.72080068513	1038.889332275641	1066.637041777357	1998.899708249908	175.1941925914363	1009.11901387896	1958.921316018922	200.4995190419525	1028.085072124533	2037.168612071602	243.7300709098938	989.4637755077235	1997.744409052708	273.2862928471714	1009.508312348471	2170.262248007669	607.7635222200191	943.8875034241375	2111.097878702935	596.1082096067979	975.6854474293124	2141.942543426306	713.7505557139974	929.0180686864655	2080.91425881411	701.6598818301832	966.0024553855224	2232.208568323849	967.7443255578354	1195.579292889008	1905.908901631949	243.5292678517661	1160.174170391009	1805.318154466845	404.9256922989146	1149.931134839	1830.31080959086	383.8588943611945	1192.145070206521	1851.717317150539	407.4816804734781	1151.969589494426	2167.39385585199	1064.371788805172	1244.282300955206	1871.843469601929	205.5604462877975	1112.345965301041	1849.817436959776	239.6709550367713	1223.476659925872	2047.761620566151	1039.799750716885	1155.651061627759	1974.543108644246	378.1590125888399	1212.58423474923	1958.287459190164	426.6319795534853	1190.963495578603	2046.999792839433	411.9463215696553	1228.704501512488	2030.166148975452	457.9786013620028	1206.72771805196	2260.469705970615	642.9095374389702	1276.883431110831	2202.677594791066	611.0427454204818	1245.063052431965	2206.485958907421	737.3659174971959	1278.493569226948	2149.741969239777	707.0603096062005	1251.856680688773	
